<svg width="100%" height="100%" viewBox="0 0 1000 787" version="1.1" xmlns="http://www.w3.org/2000/svg"
     xmlns:xlink="http://www.w3.org/1999/xlink" xml:space="preserve"
     style="fill-rule:evenodd;clip-rule:evenodd;stroke-linejoin:round;stroke-miterlimit:2;">
    <style>
        .black {
            fill: rgb(11,11,16);
        }
        .gray {
            fill: rgb(11,11,16);
            fill-opacity:0.35;
        }
        .red {
            fill: rgb(204,39,46);
            fill-rule:nonzero;
        }
        @media (prefers-color-scheme: dark) {
            .black, .gray {
                fill: rgb(255,255,255);
            }
        }
    </style>
    <g transform="matrix(1,0,0,1,-14.495826,-119.23)">
        <g transform="matrix(4.409167,0,0,4.409167,-60.882025,-54.847892)">
            <g transform="matrix(3.978088,-0.418114,0.418114,3.978088,-12.977942,14.806694)">
                <path d="M38.872,52L9,52C7.344,52 6,50.656 6,49L6,15C6,13.344 7.344,12 9,12L55,12C56.656,12 58,13.344 58,15L58,27.332C57.055,27.586 56.164,28.094 55.427,28.845C54.955,29.327 54.479,29.825 54,30.338L54,16L10,16L10,48L35.847,48C36.898,49.3 37.907,50.634 38.872,52ZM58,38.457L58,49C58,50.656 56.656,52 55,52L49.719,52C50.44,50.736 51.224,49.39 52.051,48L54,48L54,44.775C55.296,42.663 56.651,40.517 58,38.457ZM32.2,43.145C30.195,43.128 28.448,42.671 26.961,41.774C25.445,40.86 24.269,39.565 23.433,37.889C22.596,36.214 22.178,34.251 22.178,32C22.178,29.749 22.596,27.793 23.433,26.131C24.269,24.468 25.445,23.174 26.961,22.246C28.476,21.318 30.26,20.855 32.313,20.855C34.034,20.855 35.568,21.158 36.915,21.765C38.262,22.372 39.359,23.248 40.207,24.395C41.054,25.541 41.593,26.935 41.822,28.576L37.405,28.833C37.18,27.443 36.611,26.381 35.697,25.646C34.782,24.911 33.655,24.543 32.313,24.543C30.512,24.543 29.108,25.203 28.103,26.524C27.098,27.844 26.596,29.669 26.596,32C26.596,34.336 27.098,36.164 28.103,37.485C29.108,38.805 30.512,39.465 32.313,39.465C32.602,39.465 32.881,39.447 33.151,39.412C32.18,40.43 31.857,41.854 32.2,43.145ZM36.215,37.808C36.837,37.068 37.234,36.075 37.405,34.83L41.822,35.071C41.625,36.512 41.19,37.787 40.517,38.894C39.276,37.934 37.708,37.564 36.215,37.808Z"
                      class="black"/>
            </g>
            <g transform="matrix(3.978088,-0.418114,0.418114,3.978088,-12.977942,14.806694)">
                <path d="M33.734,45.5L13.5,45.5C12.948,45.5 12.5,45.052 12.5,44.5L12.5,19.5C12.5,18.948 12.948,18.5 13.5,18.5L50.5,18.5C51.052,18.5 51.5,18.948 51.5,19.5L51.5,33.111C51.167,33.493 50.833,33.88 50.5,34.272L50.5,19.5L13.5,19.5L13.5,44.5L32.859,44.5C32.931,44.596 33.008,44.689 33.09,44.78C33.306,45.019 33.521,45.259 33.734,45.5Z"
                      class="gray"/>
            </g>
            <g transform="matrix(0.195463,-0.020544,0.020544,0.195463,39.956045,57.659623)">
                <path d="M983.286,343.05C1002.44,347.896 1010.56,370.683 998.899,386.631C912.641,504.581 808.17,673.434 735.883,800.444C721.398,825.895 695.467,842.787 666.312,845.565C665.984,845.598 665.656,845.632 665.327,845.657C632.663,848.839 600.899,834.043 582.24,807.051C542.791,749.978 499.606,695.49 453.038,644.048C435.767,624.976 436.903,595.502 455.781,578.004C456.093,577.718 456.404,577.423 456.724,577.137C489.523,546.905 540.856,549.893 570.347,583.357C599.586,616.526 625.986,648.135 648.888,678.839C727.782,568.112 820.685,453.174 906.748,365.341C927.416,344.247 956.528,336.281 983.286,343.05Z"
                      class="red"/>
            </g>
        </g>
    </g>
</svg>
