<svg width="100%" height="100%" viewBox="0 0 1024 155" version="1.1" xmlns="http://www.w3.org/2000/svg"
     xmlns:xlink="http://www.w3.org/1999/xlink" xml:space="preserve"
     style="fill-rule:evenodd;clip-rule:evenodd;stroke-linejoin:round;stroke-miterlimit:2;">
    <style>
        .black {
            fill: rgb(11,11,16);
        }
        .gray {
            fill: rgb(11,11,16);
            fill-opacity:0.35;
        }
        .red {
            fill: rgb(204,39,46);
            fill-rule:nonzero;
        }
        @media (prefers-color-scheme: dark) {
            .black, .gray {
                fill: rgb(255,255,255);
            }
        }
    </style>
    <g transform="matrix(1,0,0,1,-100,-72.842459)">
        <g transform="matrix(4.918379,0,0,4.918379,-4411.637101,-467.752496)">
            <g transform="matrix(0.034359,-0.003611,0.003611,0.034359,921.320005,113.10871)">
                <path d="M983.286,343.05C1002.44,347.896 1010.56,370.683 998.899,386.631C912.641,504.581 808.17,673.434 735.883,800.444C721.398,825.895 695.467,842.787 666.312,845.565C665.984,845.598 665.656,845.632 665.327,845.657C632.663,848.839 600.899,834.043 582.24,807.051C542.791,749.978 499.606,695.49 453.038,644.048C435.767,624.976 436.903,595.502 455.781,578.004C456.093,577.718 456.404,577.423 456.724,577.137C489.523,546.905 540.856,549.893 570.347,583.357C599.586,616.526 625.986,648.135 648.888,678.839C727.782,568.112 820.685,453.174 906.748,365.341C927.416,344.247 956.528,336.281 983.286,343.05Z"
                      class="red"/>
            </g>
            <g transform="matrix(0.699273,-0.073497,0.073497,0.699273,912.015199,105.575965)">
                <path d="M33.734,45.5L13.5,45.5C12.948,45.5 12.5,45.052 12.5,44.5L12.5,19.5C12.5,18.948 12.948,18.5 13.5,18.5L50.5,18.5C51.052,18.5 51.5,18.948 51.5,19.5L51.5,33.111C51.167,33.493 50.833,33.88 50.5,34.272L50.5,19.5L13.5,19.5L13.5,44.5L32.859,44.5C32.931,44.596 33.008,44.689 33.09,44.78C33.306,45.019 33.521,45.259 33.734,45.5Z"
                      class="gray"/>
            </g>
            <g transform="matrix(0.699273,-0.073497,0.073497,0.699273,912.015199,105.575965)">
                <path d="M38.872,52L9,52C7.344,52 6,50.656 6,49L6,15C6,13.344 7.344,12 9,12L55,12C56.656,12 58,13.344 58,15L58,27.332C57.055,27.586 56.164,28.094 55.427,28.845C54.955,29.327 54.479,29.825 54,30.338L54,16L10,16L10,48L35.847,48C36.898,49.3 37.907,50.634 38.872,52ZM58,38.457L58,49C58,50.656 56.656,52 55,52L49.719,52C50.44,50.736 51.224,49.39 52.051,48L54,48L54,44.775C55.296,42.663 56.651,40.517 58,38.457ZM32.2,43.145C30.195,43.128 28.448,42.671 26.961,41.774C25.445,40.86 24.269,39.565 23.433,37.889C22.596,36.214 22.178,34.251 22.178,32C22.178,29.749 22.596,27.793 23.433,26.131C24.269,24.468 25.445,23.174 26.961,22.246C28.476,21.318 30.26,20.855 32.313,20.855C34.034,20.855 35.568,21.158 36.915,21.765C38.262,22.372 39.359,23.248 40.207,24.395C41.054,25.541 41.593,26.935 41.822,28.576L37.405,28.833C37.18,27.443 36.611,26.381 35.697,25.646C34.782,24.911 33.655,24.543 32.313,24.543C30.512,24.543 29.108,25.203 28.103,26.524C27.098,27.844 26.596,29.669 26.596,32C26.596,34.336 27.098,36.164 28.103,37.485C29.108,38.805 30.512,39.465 32.313,39.465C32.602,39.465 32.881,39.447 33.151,39.412C32.18,40.43 31.857,41.854 32.2,43.145ZM36.215,37.808C36.837,37.068 37.234,36.075 37.405,34.83L41.822,35.071C41.625,36.512 41.19,37.787 40.517,38.894C39.276,37.934 37.708,37.564 36.215,37.808Z"
                      class="black"/>
            </g>
            <g transform="matrix(0.203319,0,0,0.203319,896.969685,95.102974)">
                <path d="M667.592,196.655C666.53,198.884 665.066,200.961 663.2,202.883C660.139,206.037 656.301,208.494 651.686,210.255C647.072,212.015 642.025,212.896 636.546,212.896C627.04,212.896 619.421,210.697 613.689,206.301C607.957,201.904 605.091,195.77 605.091,187.899C605.091,179.981 607.479,173.783 612.255,169.305C617.032,164.828 624.438,161.634 634.474,159.724L666.031,153.717C666.031,146.581 664.374,141.241 661.06,137.696C657.746,134.15 652.82,132.378 646.283,132.378C640.437,132.378 635.828,133.696 632.455,136.332C629.082,138.968 626.786,142.772 625.567,147.742L606.645,146.569C608.394,137.408 612.711,130.175 619.594,124.869C626.477,119.564 635.373,116.911 646.283,116.911C658.713,116.911 668.162,120.214 674.629,126.82C681.097,133.426 684.331,142.713 684.331,154.683L684.331,190.383C684.331,192.64 684.728,194.206 685.523,195.081C686.318,195.955 687.578,196.393 689.305,196.393L692.585,196.393L692.585,210.824C692.009,210.986 691.077,211.119 689.787,211.222C688.498,211.325 687.175,211.377 685.817,211.377C681.834,211.377 678.45,210.732 675.665,209.443C672.88,208.154 670.786,206.053 669.381,203.142C668.522,201.361 667.926,199.198 667.592,196.655ZM639.516,198.465C645.017,198.465 649.741,197.394 653.689,195.253C657.637,193.112 660.681,190.149 662.821,186.363C664.961,182.576 666.031,178.255 666.031,173.397L666.031,167.528L639.24,172.707C633.693,173.766 629.785,175.394 627.517,177.592C625.25,179.789 624.116,182.65 624.116,186.172C624.116,190.062 625.474,193.083 628.19,195.236C630.907,197.388 634.682,198.465 639.516,198.465ZM721.784,136.392C723.216,131.315 725.313,127.411 728.078,124.679C731.922,120.881 737.112,118.982 743.649,118.982L752.418,118.982L752.418,135.348L743.719,135.348C739.045,135.348 735.172,136.113 732.1,137.644C729.027,139.176 726.714,141.495 725.161,144.602C723.607,147.71 722.83,151.726 722.83,156.652L722.83,210.824L704.531,210.824L704.531,118.982L721.241,118.982L721.784,136.392ZM819.27,196.655C818.208,198.884 816.744,200.961 814.878,202.883C811.816,206.037 807.978,208.494 803.364,210.255C798.749,212.015 793.703,212.896 788.223,212.896C778.717,212.896 771.099,210.697 765.367,206.301C759.635,201.904 756.769,195.77 756.769,187.899C756.769,179.981 759.157,173.783 763.933,169.305C768.709,164.828 776.115,161.634 786.152,159.724L817.709,153.717C817.709,146.581 816.052,141.241 812.737,137.696C809.423,134.15 804.498,132.378 797.961,132.378C792.115,132.378 787.505,133.696 784.133,136.332C780.76,138.968 778.464,142.772 777.245,147.742L758.322,146.569C760.072,137.408 764.388,130.175 771.271,124.869C778.154,119.564 787.051,116.911 797.961,116.911C810.391,116.911 819.839,120.214 826.307,126.82C832.774,133.426 836.008,142.713 836.008,154.683L836.008,190.383C836.008,192.64 836.405,194.206 837.2,195.081C837.995,195.955 839.256,196.393 840.982,196.393L844.262,196.393L844.262,210.824C843.687,210.986 842.754,211.119 841.465,211.222C840.176,211.325 838.852,211.377 837.494,211.377C833.511,211.377 830.127,210.732 827.343,209.443C824.558,208.154 822.463,206.053 821.059,203.142C820.2,201.361 819.603,199.198 819.27,196.655ZM791.193,198.465C796.694,198.465 801.419,197.394 805.367,195.253C809.315,193.112 812.359,190.149 814.499,186.363C816.639,182.576 817.709,178.255 817.709,173.397L817.709,167.528L790.918,172.707C785.37,173.766 781.463,175.394 779.195,177.592C776.927,179.789 775.793,182.65 775.793,186.172C775.793,190.062 777.152,193.083 779.868,195.236C782.584,197.388 786.359,198.465 791.193,198.465ZM873.297,134.965C874.329,132.243 875.635,129.856 877.217,127.804C880.083,124.086 883.581,121.341 887.713,119.569C891.844,117.797 896.327,116.911 901.161,116.911C908.066,116.911 913.815,118.43 918.408,121.468C923.001,124.506 926.459,128.644 928.784,133.88C931.108,139.117 932.27,145.073 932.27,151.748L932.27,210.824L913.971,210.824L913.971,157.377C913.971,151.968 913.389,147.405 912.227,143.687C911.064,139.969 909.177,137.137 906.565,135.192C903.953,133.248 900.506,132.275 896.224,132.275C889.756,132.275 884.519,134.416 880.515,138.698C876.51,142.979 874.507,149.206 874.507,157.377L874.507,210.824L856.208,210.824L856.208,118.982L872.849,118.982L873.297,134.965ZM415.643,212.896C406.803,212.896 399.12,210.928 392.595,206.991C386.07,203.055 381.006,197.479 377.403,190.263C373.8,183.047 371.999,174.594 371.999,164.903C371.999,155.212 373.8,146.788 377.403,139.63C381.006,132.472 386.07,126.896 392.595,122.902C399.12,118.908 406.803,116.911 415.643,116.911C423.054,116.911 429.659,118.217 435.46,120.83C441.26,123.443 445.984,127.218 449.633,132.155C453.282,137.092 455.601,143.094 456.59,150.159L437.568,151.265C436.6,145.28 434.148,140.706 430.212,137.541C426.275,134.376 421.419,132.793 415.643,132.793C407.885,132.793 401.842,135.636 397.515,141.321C393.187,147.006 391.024,154.867 391.024,164.903C391.024,174.963 393.187,182.835 397.515,188.52C401.842,194.206 407.885,197.048 415.643,197.048C421.442,197.048 426.316,195.397 430.264,192.093C434.212,188.79 436.647,183.789 437.568,177.09L456.59,178.126C455.624,185.193 453.329,191.328 449.703,196.53C446.078,201.733 441.365,205.761 435.565,208.615C429.764,211.469 423.124,212.896 415.643,212.896ZM490.739,210.824C484.707,210.824 479.862,209.27 476.202,206.163C472.543,203.056 470.713,198.095 470.713,191.281L470.713,88.253L489.013,88.253L489.013,189.555C489.013,191.673 489.553,193.256 490.635,194.304C491.717,195.351 493.27,195.875 495.295,195.875L502.651,195.875L502.651,210.824L490.739,210.824ZM552.507,212.896C543.6,212.896 535.889,210.928 529.375,206.991C522.861,203.055 517.831,197.479 514.286,190.263C510.74,183.047 508.968,174.594 508.968,164.903C508.968,155.212 510.74,146.788 514.286,139.63C517.831,132.472 522.814,126.896 529.236,122.902C535.658,118.908 543.23,116.911 551.954,116.911C560.31,116.911 567.66,118.827 574.001,122.659C580.343,126.491 585.263,132.032 588.761,139.283C592.26,146.534 594.009,155.304 594.009,165.594L594.009,170.22L528.028,170.22C528.535,179.173 530.946,185.9 535.262,190.401C539.578,194.901 545.372,197.151 552.644,197.151C558.1,197.151 562.606,195.897 566.162,193.388C569.719,190.879 572.199,187.461 573.603,183.132L592.663,184.446C590.223,192.986 585.458,199.863 578.368,205.076C571.279,210.289 562.658,212.896 552.507,212.896ZM528.028,156.409L574.604,156.409C574.029,148.238 571.692,142.213 567.595,138.335C563.497,134.457 558.284,132.518 551.954,132.518C545.487,132.518 540.153,134.543 535.953,138.594C531.752,142.645 529.11,148.583 528.028,156.409ZM990.553,212.896C981.713,212.896 974.03,210.928 967.505,206.991C960.98,203.055 955.916,197.479 952.313,190.263C948.711,183.047 946.909,174.594 946.909,164.903C946.909,155.212 948.711,146.788 952.313,139.63C955.916,132.472 960.98,126.896 967.505,122.902C974.03,118.908 981.713,116.911 990.553,116.911C997.964,116.911 1004.57,118.217 1010.37,120.83C1016.17,123.443 1020.895,127.218 1024.544,132.155C1028.192,137.092 1030.511,143.094 1031.5,150.159L1012.478,151.265C1011.511,145.28 1009.059,140.706 1005.122,137.541C1001.186,134.376 996.33,132.793 990.553,132.793C982.796,132.793 976.753,135.636 972.425,141.321C968.098,147.006 965.934,154.867 965.934,164.903C965.934,174.963 968.098,182.835 972.425,188.52C976.753,194.206 982.796,197.048 990.553,197.048C996.353,197.048 1001.227,195.397 1005.175,192.093C1009.123,188.79 1011.557,183.789 1012.478,177.09L1031.5,178.126C1030.535,185.193 1028.239,191.328 1024.614,196.53C1020.988,201.733 1016.276,205.761 1010.475,208.615C1004.675,211.469 998.034,212.896 990.553,212.896ZM1082.497,212.896C1073.591,212.896 1065.88,210.928 1059.366,206.991C1052.851,203.055 1047.822,197.479 1044.276,190.263C1040.731,183.047 1038.958,174.594 1038.958,164.903C1038.958,155.212 1040.731,146.788 1044.276,139.63C1047.822,132.472 1052.805,126.896 1059.227,122.902C1065.648,118.908 1073.221,116.911 1081.944,116.911C1090.301,116.911 1097.65,118.827 1103.992,122.659C1110.334,126.491 1115.254,132.032 1118.752,139.283C1122.251,146.534 1124,155.304 1124,165.594L1124,170.22L1058.018,170.22C1058.525,179.173 1060.937,185.9 1065.253,190.401C1069.569,194.901 1075.363,197.151 1082.635,197.151C1088.091,197.151 1092.597,195.897 1096.153,193.388C1099.709,190.879 1102.19,187.461 1103.594,183.132L1122.654,184.446C1120.214,192.986 1115.449,199.863 1108.359,205.076C1101.269,210.289 1092.649,212.896 1082.497,212.896ZM1058.018,156.409L1104.595,156.409C1104.019,148.238 1101.683,142.213 1097.585,138.335C1093.488,134.457 1088.274,132.518 1081.944,132.518C1075.478,132.518 1070.144,134.543 1065.943,138.594C1061.743,142.645 1059.101,148.583 1058.018,156.409Z"
                      class="black"/>
            </g>
        </g>
    </g>
</svg>
